<svg xmlns="http://www.w3.org/2000/svg" version="1.1" xmlns:xlink="http://www.w3.org/1999/xlink" xmlns:svgjs="http://svgjs.dev/svgjs" viewBox="0 0 2400 800" opacity="1"><defs><linearGradient x1="50%" y1="0%" x2="50%" y2="100%" id="sssurf-grad"><stop stop-color="#e073fc7c" stop-opacity="1" offset="0%"></stop><stop stop-color="#212529ff" stop-opacity="1" offset="100%"></stop></linearGradient></defs><g fill="url(#sssurf-grad)" transform="matrix(1,0,0,1,5.82373046875,-79.4873275756836)"><path d="M-10,10C75.41666666666666,17.916666666666664,231.25,58.625,400,48C568.75,37.375,633.3333333333333,-39.333333333333336,800,-41C966.6666666666667,-42.666666666666664,1033.3333333333333,38.541666666666664,1200,40C1366.6666666666667,41.458333333333336,1433.3333333333333,-35.041666666666664,1600,-34C1766.6666666666667,-32.958333333333336,1833.3333333333333,38.958333333333336,2000,45C2166.6666666666665,51.041666666666664,2264.5833333333335,-78.95833333333333,2400,-5C2535.4166666666665,68.95833333333333,3254.1666666666665,211.45833333333331,2650,400C2045.8333333333335,588.5416666666667,156.25,795.8333333333334,-500,900" transform="matrix(1,0,0,1,0,150)" opacity="0.05"></path><path d="M-10,10C75.41666666666666,17.916666666666664,231.25,58.625,400,48C568.75,37.375,633.3333333333333,-39.333333333333336,800,-41C966.6666666666667,-42.666666666666664,1033.3333333333333,38.541666666666664,1200,40C1366.6666666666667,41.458333333333336,1433.3333333333333,-35.041666666666664,1600,-34C1766.6666666666667,-32.958333333333336,1833.3333333333333,38.958333333333336,2000,45C2166.6666666666665,51.041666666666664,2264.5833333333335,-78.95833333333333,2400,-5C2535.4166666666665,68.95833333333333,3254.1666666666665,211.45833333333331,2650,400C2045.8333333333335,588.5416666666667,156.25,795.8333333333334,-500,900" transform="matrix(1,0,0,1,0,300)" opacity="0.29"></path><path d="M-10,10C75.41666666666666,17.916666666666664,231.25,58.625,400,48C568.75,37.375,633.3333333333333,-39.333333333333336,800,-41C966.6666666666667,-42.666666666666664,1033.3333333333333,38.541666666666664,1200,40C1366.6666666666667,41.458333333333336,1433.3333333333333,-35.041666666666664,1600,-34C1766.6666666666667,-32.958333333333336,1833.3333333333333,38.958333333333336,2000,45C2166.6666666666665,51.041666666666664,2264.5833333333335,-78.95833333333333,2400,-5C2535.4166666666665,68.95833333333333,3254.1666666666665,211.45833333333331,2650,400C2045.8333333333335,588.5416666666667,156.25,795.8333333333334,-500,900" transform="matrix(1,0,0,1,0,450)" opacity="0.53"></path><path d="M-10,10C75.41666666666666,17.916666666666664,231.25,58.625,400,48C568.75,37.375,633.3333333333333,-39.333333333333336,800,-41C966.6666666666667,-42.666666666666664,1033.3333333333333,38.541666666666664,1200,40C1366.6666666666667,41.458333333333336,1433.3333333333333,-35.041666666666664,1600,-34C1766.6666666666667,-32.958333333333336,1833.3333333333333,38.958333333333336,2000,45C2166.6666666666665,51.041666666666664,2264.5833333333335,-78.95833333333333,2400,-5C2535.4166666666665,68.95833333333333,3254.1666666666665,211.45833333333331,2650,400C2045.8333333333335,588.5416666666667,156.25,795.8333333333334,-500,900" transform="matrix(1,0,0,1,0,600)" opacity="0.76"></path><path d="M-10,10C75.41666666666666,17.916666666666664,231.25,58.625,400,48C568.75,37.375,633.3333333333333,-39.333333333333336,800,-41C966.6666666666667,-42.666666666666664,1033.3333333333333,38.541666666666664,1200,40C1366.6666666666667,41.458333333333336,1433.3333333333333,-35.041666666666664,1600,-34C1766.6666666666667,-32.958333333333336,1833.3333333333333,38.958333333333336,2000,45C2166.6666666666665,51.041666666666664,2264.5833333333335,-78.95833333333333,2400,-5C2535.4166666666665,68.95833333333333,3254.1666666666665,211.45833333333331,2650,400C2045.8333333333335,588.5416666666667,156.25,795.8333333333334,-500,900" transform="matrix(1,0,0,1,0,750)" opacity="1.00"></path></g></svg>